name GIL12_xslow1Moments.mot
datacolumns 7
datarows 33
range 0.15833344 0.42500010
endheader

                time	          RHipMoment	          LHipMoment	         RKneeMoment	         LKneeMoment	        RAnkleMoment	        LAnkleMoment	
          0.15833344	        -19.37639236	        246.86485291	        -38.88626480	        278.21591187	        -32.40315247	         17.95626450	
          0.16666676	        -14.66041946	        198.97702026	        -26.19900894	        265.57833862	        -31.47798920	         31.65767670	
          0.17500010	        -15.48321533	        137.28863525	         -8.85221291	        260.13424683	        -27.63763237	         45.54360199	
          0.18333343	        -25.17792320	         87.79595184	         12.68284035	        251.73535156	        -21.63747406	         60.60970688	
          0.19166677	        -45.93224335	         52.67558670	         36.92612457	        241.45420837	        -14.93079281	         74.29755402	
          0.20000009	        -74.69731903	         34.49892044	         60.68007278	        225.80484009	         -8.95802402	         87.10475922	
          0.20833343	       -104.54480743	         24.31309509	         80.08210754	        208.93739319	         -4.67985535	         97.78166199	
          0.21666676	       -128.33010864	         12.98254204	         91.92948151	        195.43495178	         -2.40683722	        104.47135162	
          0.22500010	       -140.39807129	          7.56969643	         94.63041687	        180.41369629	         -1.88304889	        107.63127899	
          0.23333344	       -138.48271179	          4.63952017	         88.49560547	        165.01960754	         -2.51657939	        108.50297546	
          0.24166676	       -123.90965271	         -0.77501887	         75.58579254	        150.83737183	         -3.73024917	        107.83689880	
          0.25000009	       -103.91372681	         -3.42987537	         58.89677429	        135.23826599	         -5.11092758	        106.05539703	
          0.25833344	        -78.24400330	        -16.93883896	         41.54283524	        126.19741821	         -6.46256638	        102.67917633	
          0.26666677	        -59.77674866	        -29.52198601	         26.32806015	        117.25164795	         -7.69675779	         99.40495300	
          0.27500010	        -46.89988327	        -32.04319382	         15.36628914	        103.34266663	         -8.70583820	         97.38390350	
          0.28333342	        -46.10735703	        -42.44705582	          9.63661385	         93.69783020	         -9.39286327	         94.87757874	
          0.29166675	        -49.27351379	        -56.52474976	          8.87120438	         85.39133453	         -9.72472763	         92.51434326	
          0.30000010	        -61.80798721	        -75.46879578	         11.85103321	         78.90766907	         -9.79418945	         89.55558777	
          0.30833343	        -73.59992218	        -89.72653961	         16.74034691	         69.65749359	         -9.79334927	         87.62204742	
          0.31666678	        -94.48547363	        -99.63893890	         21.45576286	         57.49076080	         -9.91732693	         86.17675781	
          0.32500011	       -104.93001556	       -102.94005585	         24.04255104	         44.54507065	        -10.28799438	         84.63081360	
          0.33333343	       -114.31806183	       -105.78046417	         23.22569656	         33.08583069	        -10.94618225	         84.14677429	
          0.34166676	       -114.00881195	       -107.43382263	         18.82099152	         25.13355827	        -11.84997463	         83.60978699	
          0.35000008	       -111.82405090	       -113.37493896	         11.56799412	         22.54579163	        -12.86930656	         83.32754517	
          0.35833341	       -101.89410400	       -121.54969025	          2.78035688	         23.44095993	        -13.83593082	         85.50785065	
          0.36666676	        -92.29729462	       -132.02909851	         -5.96576118	         25.12779045	        -14.62166786	         93.51290131	
          0.37500009	        -80.48416138	       -136.51420593	        -13.19216156	         25.15270233	        -15.16431522	        105.08751678	
          0.38333344	        -76.16024017	       -126.29607391	        -17.92644119	         18.86725807	        -15.43608952	        121.33516693	
          0.39166677	        -74.29405212	       -103.14460754	        -20.13763618	          8.92593670	        -15.41860771	        141.23896790	
          0.40000010	        -75.89611053	        -78.03238678	        -20.70840836	          3.51580000	        -15.12391663	        162.59951782	
          0.40833342	        -79.05283356	        -65.80409241	        -20.82697296	         10.82772923	        -14.61532211	        186.71212769	
          0.41666678	        -82.80063629	        -75.10563660	        -21.53576279	         34.44391251	        -13.98454762	        215.46000671	
          0.42500010	        -85.42192078	        -94.68274689	        -23.59633636	         67.49034882	        -13.32934856	        247.83615112	
